<?xml version="1.0" encoding="utf-8"?>
<!-- Generator: Adobe Illustrator 27.1.1, SVG Export Plug-In . SVG Version: 6.00 Build 0)  -->
<svg version="1.1" id="Layer_1" xmlns="http://www.w3.org/2000/svg" xmlns:xlink="http://www.w3.org/1999/xlink" x="0px" y="0px"
	 viewBox="0 0 195 60" style="enable-background:new 0 0 195 60;" xml:space="preserve">
<style type="text/css">
	.st0{fill:none;}
	.st1{fill:#FFFFFF;}
	.st2{fill:#40413F;stroke:#40413F;stroke-width:0.25;stroke-miterlimit:10;}
	.st3{stroke:#000000;stroke-width:0.5;stroke-miterlimit:10;}
</style>
<g>
</g>
<rect class="st0" width="195" height="60"/>
<line class="st1" x1="13.88" y1="34.49" x2="26.6" y2="34.49"/>
<polyline class="st1" points="17,31.94 17,12.4 52.04,12.4 52.04,30 "/>
<g>
	<path d="M68.68,42.5c-0.36,0.44-0.82,0.58-1.38,0.55c-0.8-0.04-1.6-0.01-2.39-0.01c-0.65,3.85-2.81,5.88-6.12,5.73
		c-2.38-0.1-5.18-1.93-5.4-5.69c-6.72,0-13.45,0-20.17,0c-0.85,3.99-2.94,5.92-6.23,5.68c-2.71-0.2-5.15-2.36-5.28-5.73
		c-0.19,0-0.39,0-0.59,0c-1.35,0-2.69,0-4.04,0c-1.32-0.01-2.08-0.78-2.08-2.1c0-0.56,0-1.11,0-1.74c-0.83,0-1.61,0-2.39,0
		c-0.24,0-0.49,0-0.73-0.05c-0.43-0.09-0.68-0.38-0.7-0.82c-0.02-0.45,0.19-0.75,0.62-0.89c0.17-0.06,0.37-0.07,0.55-0.07
		c2.69,0,5.39,0,8.08,0c0.09,0,0.19,0,0.28,0c0.54,0.06,0.89,0.41,0.9,0.89c0.01,0.52-0.34,0.91-0.92,0.93
		c-1.05,0.03-2.1,0.01-3.14,0.01c-0.22,0-0.44,0-0.7,0c0,0.68,0,1.31,0,1.96c0.16,0.02,0.28,0.05,0.41,0.05
		c1.46,0,2.92,0.01,4.38-0.01c0.18,0,0.45-0.17,0.53-0.34c1.06-2.22,2.82-3.46,5.26-3.47c2.45,0,4.22,1.23,5.25,3.46
		c0.17,0.38,0.42,0.36,0.71,0.36c5.84,0,11.68,0,17.52,0c0.17,0,0.33,0,0.59,0c0-0.23,0-0.43,0-0.63c0-2,0-4.01,0-6.01
		c0-0.43,0.13-0.83,0.56-0.93c0.29-0.07,0.71-0.03,0.91,0.14c0.21,0.18,0.32,0.58,0.33,0.89c0.03,1.98,0.01,3.97,0.02,5.95
		c0,0.19,0.12,0.38,0.18,0.57c0.14-0.14,0.33-0.26,0.42-0.43c1.07-2.16,2.81-3.37,5.21-3.37c2.4-0.01,4.16,1.18,5.2,3.36
		c0.18,0.37,0.38,0.49,0.76,0.47c0.58-0.03,1.15-0.01,1.76-0.01c0-1.32,0-2.58,0-3.9c-0.42-0.02-0.85-0.03-1.27-0.07
		c-1.4-0.13-2.46-1.22-2.53-2.62c-0.03-0.67-0.03-1.35-0.01-2.02c0.02-0.67,0.35-0.97,1.03-0.98c0.85-0.01,1.71,0,2.57,0
		c-0.24-1.09-1.32-2-2.52-2.01c-3.54-0.03-7.07-0.01-10.61-0.01c-0.05,0-0.1,0.03-0.21,0.07c0,0.32,0.02,0.66,0,0.99
		c-0.03,0.51-0.38,0.84-0.86,0.85c-0.5,0.01-0.88-0.33-0.93-0.85c-0.02-0.17-0.01-0.34-0.01-0.51c0-5.07,0-10.14,0-15.22
		c0-0.22,0-0.44,0-0.68c-11.57,0-23.07,0-34.65,0c-0.01,0.23-0.03,0.47-0.03,0.7c0,5.07,0,10.14,0,15.22c0,0.95-0.26,1.34-0.89,1.34
		c-0.65,0.01-0.93-0.4-0.93-1.37c0-5.18,0-10.37,0-15.55c0-1.45,0.72-2.16,2.17-2.16c11.32,0,22.65,0,33.97,0
		c1.47,0,2.16,0.69,2.17,2.16c0,0.54,0,1.07,0,1.67c0.44,0,0.8,0,1.17,0c1.82,0,3.63-0.01,5.45,0c2.29,0.01,3.88,1.57,3.94,3.85
		c0.01,0.19-0.01,0.38,0,0.56c0.04,0.57-0.1,1.04-0.69,1.26c0.46,1.86,0.91,3.69,1.38,5.51c0.05,0.18,0.23,0.41,0.39,0.45
		c1.96,0.51,3.17,1.74,3.63,3.71c0.01,0.05,0.06,0.09,0.09,0.14C68.68,35.31,68.68,38.9,68.68,42.5z M53.36,21.92
		c0,1.99,0,3.9,0,5.83c3.14,0,6.24,0,9.33,0c0.02-0.06,0.04-0.1,0.03-0.13c-0.45-1.81-0.89-3.62-1.36-5.42
		c-0.03-0.12-0.29-0.26-0.45-0.26c-0.86-0.03-1.72-0.01-2.58-0.01C56.69,21.92,55.05,21.92,53.36,21.92z M31.32,43.07
		c0-2.16-1.71-3.87-3.88-3.87c-2.15,0-3.9,1.75-3.89,3.88c0.01,2.12,1.79,3.9,3.91,3.89C29.59,46.97,31.32,45.22,31.32,43.07z
		 M59.13,39.2c-2.16,0.01-3.89,1.74-3.88,3.89c0.01,2.14,1.78,3.9,3.9,3.89c2.13-0.01,3.89-1.78,3.88-3.91
		C63.02,40.92,61.28,39.2,59.13,39.2z M62.01,20.03c0.06-0.89-0.55-1.85-1.41-1.88c-2.4-0.08-4.81-0.03-7.24-0.03
		c0,0.64,0,1.26,0,1.91C56.26,20.03,59.14,20.03,62.01,20.03z M64.91,33.44c-0.26,1.69,0.37,2.3,1.92,1.91c0-0.64,0-1.28,0-1.91
		C66.16,33.44,65.53,33.44,64.91,33.44z"/>
	<path d="M33.13,29.39c2.69-2.69,5.24-5.25,7.78-7.8c0.13-0.13,0.26-0.28,0.41-0.38c0.41-0.27,0.83-0.25,1.17,0.11
		c0.34,0.36,0.34,0.77,0.06,1.17c-0.09,0.14-0.23,0.25-0.34,0.37c-2.7,2.7-5.39,5.4-8.09,8.09c-0.74,0.74-1.1,0.74-1.83,0.01
		c-1.45-1.45-2.92-2.89-4.35-4.38c-0.24-0.25-0.44-0.7-0.39-1.01c0.11-0.75,0.97-0.93,1.56-0.35c1.21,1.19,2.41,2.4,3.61,3.61
		C32.87,28.98,32.97,29.16,33.13,29.39z"/>
	<path d="M41.8,39.19c-2.07,0-4.15,0-6.22,0c-0.19,0-0.38,0-0.56-0.03c-0.49-0.08-0.78-0.38-0.79-0.87
		c-0.01-0.49,0.28-0.79,0.75-0.91c0.14-0.04,0.3-0.03,0.45-0.03c4.28,0,8.56,0,12.84,0c0.22,0,0.46,0.02,0.66,0.1
		c0.38,0.15,0.58,0.46,0.55,0.88c-0.03,0.42-0.26,0.7-0.67,0.8c-0.21,0.05-0.44,0.06-0.67,0.06C46.02,39.19,43.91,39.19,41.8,39.19z
		"/>
	<path d="M19.77,35.33c-1.78,0-3.55,0-5.33,0c-0.17,0-0.34,0.01-0.5-0.01c-0.5-0.05-0.83-0.41-0.84-0.88c0-0.46,0.34-0.87,0.82-0.91
		c0.39-0.03,0.79-0.01,1.18-0.01c3.42,0,6.85,0,10.27,0c0.45,0,0.86,0.14,0.97,0.59c0.07,0.28,0.01,0.7-0.17,0.91
		c-0.16,0.2-0.55,0.3-0.84,0.3C23.48,35.34,21.62,35.33,19.77,35.33z"/>
	<path d="M29.31,43.05c0.01,1.01-0.81,1.87-1.82,1.9c-1.02,0.03-1.91-0.83-1.93-1.85c-0.02-1.02,0.85-1.9,1.88-1.89
		C28.46,41.21,29.3,42.04,29.31,43.05z"/>
	<path d="M61.02,43.07c0,1.02-0.89,1.9-1.91,1.88c-1-0.02-1.85-0.88-1.86-1.87c0-1.02,0.88-1.89,1.9-1.87
		C60.17,41.22,61.02,42.07,61.02,43.07z"/>
</g>
<g>
	<path class="st2" d="M80.4,23.18h-3.5v2.88h3.9v0.89h-5v-8.08h4.8v0.89H76.9v2.53h3.5V23.18z"/>
	<path class="st2" d="M82.25,26.95v-8.08h1.24l2.96,4.18c0.68,0.98,1.16,1.75,1.58,2.57l0.03-0.02c-0.1-1.02-0.11-1.98-0.11-3.19
		v-3.55h1.03v8.08h-1.12l-2.91-4.17c-0.63-0.94-1.24-1.86-1.69-2.69l-0.04,0.02c0.06,1.01,0.07,1.96,0.07,3.17v3.68H82.25z"/>
	<path class="st2" d="M92.66,19.77h-2.79v-0.9h6.69v0.9h-2.8v7.18h-1.09V19.77z"/>
	<path class="st2" d="M97.44,18.98c0.58-0.1,1.43-0.18,2.23-0.18c1.21,0,1.99,0.23,2.52,0.69c0.4,0.34,0.66,0.89,0.66,1.52
		c0,1.07-0.74,1.79-1.6,2.05v0.03c0.62,0.23,1.02,0.81,1.22,1.58c0.29,1.14,0.49,1.94,0.67,2.28h-1.13
		c-0.13-0.23-0.32-0.9-0.57-1.91c-0.26-1.11-0.73-1.54-1.73-1.58h-1.2v3.5h-1.09V18.98z M98.53,22.64h1.29
		c1.2,0,1.94-0.59,1.94-1.51c0-1.09-0.88-1.5-2.02-1.5c-0.61,0-1.02,0.06-1.22,0.11V22.64z"/>
	<path class="st2" d="M109.01,23.18h-3.5v2.88h3.91v0.89h-5v-8.08h4.8v0.89h-3.71v2.53h3.5V23.18z"/>
	<path class="st2" d="M117.75,26.54c-0.51,0.19-1.55,0.5-2.84,0.5c-1.4,0-2.53-0.35-3.39-1.16c-0.73-0.69-1.17-1.75-1.17-2.93
		c0-2.17,1.67-4.16,4.81-4.16c1.08,0,1.93,0.24,2.31,0.42l-0.28,0.87c-0.5-0.22-1.13-0.4-2.07-0.4c-2.28,0-3.63,1.36-3.63,3.22
		c0,1.9,1.32,3.25,3.52,3.25c0.81,0,1.37-0.11,1.66-0.26v-2.33h-1.83V22.7h2.91V26.54z"/>
	<path class="st2" d="M120.88,24.37l-0.94,2.58h-1.15l3.05-8.08h1.33l3.08,8.08h-1.19l-0.98-2.58H120.88z M123.86,23.53l-0.93-2.42
		c-0.19-0.51-0.32-0.93-0.45-1.35h-0.02c-0.12,0.43-0.25,0.85-0.43,1.33l-0.92,2.44H123.86z"/>
	<path class="st2" d="M134.94,23.38c-0.07-1.14-0.15-2.57-0.15-3.59h-0.03c-0.31,0.95-0.69,1.99-1.14,3.15l-1.57,3.97h-0.85
		l-1.44-3.92c-0.42-1.18-0.76-2.23-1.01-3.19h-0.02c-0.04,1.03-0.09,2.44-0.18,3.68l-0.24,3.49h-1.04l0.59-8.08h1.44l1.52,3.98
		c0.35,0.96,0.65,1.89,0.87,2.7h0.03c0.23-0.78,0.55-1.72,0.94-2.7l1.62-3.99h1.44l0.51,8.08h-1.08L134.94,23.38z"/>
	<path class="st2" d="M145.74,22.82c0,2.69-1.91,4.28-4.22,4.28c-2.41,0-4.1-1.74-4.1-4.09c0-2.52,1.79-4.28,4.2-4.28
		C144.1,18.73,145.74,20.48,145.74,22.82z M138.57,22.97c0,1.75,1.15,3.26,3,3.26c1.86,0,3.02-1.44,3.02-3.36
		c0-1.64-1.03-3.29-2.99-3.29C139.62,19.59,138.57,21.16,138.57,22.97z"/>
	<path class="st2" d="M147.05,25.61c0.53,0.33,1.28,0.59,2.1,0.59c1.14,0,1.81-0.56,1.81-1.38c0-0.75-0.44-1.19-1.68-1.57
		c-1.55-0.48-2.34-1.15-2.34-2.31c0-1.27,1.11-2.22,2.78-2.22c0.93,0,1.59,0.2,2,0.42l-0.31,0.88c-0.28-0.16-0.88-0.42-1.71-0.42
		c-1.22,0-1.65,0.68-1.65,1.23c0,0.73,0.52,1.12,1.75,1.52c1.5,0.49,2.28,1.12,2.28,2.4c0,1.19-0.89,2.35-3.02,2.35
		c-0.86,0-1.8-0.25-2.3-0.59L147.05,25.61z"/>
	<path class="st2" d="M156.39,26.95v-8.08h1.24l2.96,4.18c0.67,0.98,1.16,1.75,1.58,2.57l0.03-0.02c-0.1-1.02-0.11-1.98-0.11-3.19
		v-3.55h1.03v8.08h-1.12l-2.91-4.17c-0.63-0.94-1.24-1.86-1.68-2.69l-0.04,0.02c0.06,1.01,0.07,1.96,0.07,3.17v3.68H156.39z"/>
	<path class="st2" d="M166.48,24.37l-0.94,2.58h-1.15l3.05-8.08h1.33l3.08,8.08h-1.19l-0.98-2.58H166.48z M169.46,23.53l-0.93-2.42
		c-0.19-0.51-0.32-0.93-0.45-1.35h-0.02c-0.12,0.43-0.25,0.85-0.43,1.33l-0.92,2.44H169.46z"/>
	<path class="st2" d="M172.98,25.61c0.53,0.33,1.28,0.59,2.1,0.59c1.14,0,1.81-0.56,1.81-1.38c0-0.75-0.44-1.19-1.68-1.57
		c-1.55-0.48-2.34-1.15-2.34-2.31c0-1.27,1.11-2.22,2.78-2.22c0.93,0,1.59,0.2,2,0.42l-0.31,0.88c-0.28-0.16-0.88-0.42-1.71-0.42
		c-1.22,0-1.65,0.68-1.65,1.23c0,0.73,0.52,1.12,1.75,1.52c1.5,0.49,2.28,1.12,2.28,2.4c0,1.19-0.89,2.35-3.02,2.35
		c-0.86,0-1.8-0.25-2.3-0.59L172.98,25.61z"/>
	<path class="st3" d="M75.81,33.36c0.55-0.09,1.28-0.16,2.23-0.16c1.12,0,1.92,0.26,2.43,0.7c0.45,0.39,0.75,0.97,0.75,1.7
		c0,0.73-0.23,1.33-0.67,1.76c-0.6,0.59-1.54,0.88-2.66,0.88c-0.37,0-0.71-0.02-0.99-0.09v3.22h-1.09V33.36z M76.89,37.26
		c0.27,0.08,0.63,0.11,1.03,0.11c1.39,0,2.2-0.63,2.2-1.72c0-1.15-0.9-1.6-2.09-1.6c-0.54,0-0.94,0.05-1.15,0.09V37.26z"/>
	<path class="st3" d="M82.72,33.38c0.58-0.1,1.43-0.18,2.23-0.18c1.21,0,1.99,0.23,2.52,0.69c0.4,0.34,0.65,0.89,0.65,1.52
		c0,1.07-0.74,1.79-1.6,2.05v0.03c0.62,0.23,1.02,0.81,1.22,1.58c0.29,1.14,0.49,1.94,0.67,2.28h-1.13
		c-0.13-0.23-0.32-0.9-0.56-1.91C86.47,38.33,86,37.9,85,37.86h-1.2v3.5h-1.09V33.38z M83.81,37.04h1.29c1.2,0,1.94-0.59,1.94-1.51
		c0-1.09-0.88-1.5-2.02-1.5c-0.61,0-1.02,0.06-1.22,0.11V37.04z"/>
	<path class="st3" d="M90.78,33.27v8.08h-1.09v-8.08H90.78z"/>
	<path class="st3" d="M92.73,41.35v-8.08h1.24l2.96,4.18c0.67,0.97,1.16,1.75,1.58,2.57l0.03-0.02c-0.1-1.01-0.11-1.98-0.11-3.19
		v-3.55h1.03v8.08h-1.12l-2.91-4.17c-0.63-0.94-1.24-1.86-1.69-2.69l-0.04,0.02c0.06,1.01,0.07,1.96,0.07,3.17v3.67H92.73z"/>
	<path class="st3" d="M107.75,41.05c-0.42,0.21-1.32,0.44-2.46,0.44c-2.51,0-4.41-1.5-4.41-4.12c0-2.32,1.75-4.25,4.67-4.25
		c1.17,0,1.91,0.25,2.22,0.41l-0.28,0.87c-0.46-0.22-1.14-0.39-1.9-0.39c-2.24,0-3.58,1.33-3.58,3.34c0,1.81,1.22,3.23,3.5,3.23
		c0.74,0,1.5-0.15,2-0.38L107.75,41.05z"/>
	<path class="st3" d="M110.26,33.27v8.08h-1.09v-8.08H110.26z"/>
	<path class="st3" d="M112.2,33.36c0.55-0.09,1.28-0.16,2.23-0.16c1.12,0,1.92,0.26,2.43,0.7c0.46,0.39,0.75,0.97,0.75,1.7
		c0,0.73-0.23,1.33-0.67,1.76c-0.59,0.59-1.54,0.88-2.66,0.88c-0.37,0-0.71-0.02-0.99-0.09v3.22h-1.09V33.36z M113.29,37.26
		c0.27,0.08,0.63,0.11,1.03,0.11c1.39,0,2.2-0.63,2.2-1.72c0-1.15-0.91-1.6-2.09-1.6c-0.54,0-0.94,0.05-1.15,0.09V37.26z"/>
	<path class="st3" d="M119.43,38.77l-0.94,2.58h-1.15l3.05-8.08h1.33l3.08,8.08h-1.19l-0.98-2.58H119.43z M122.41,37.93l-0.93-2.42
		c-0.19-0.51-0.32-0.93-0.45-1.35h-0.02c-0.12,0.43-0.25,0.85-0.43,1.33l-0.92,2.44H122.41z"/>
	<path class="st3" d="M127.14,33.27v8.08h-1.09v-8.08H127.14z"/>
	<path class="st3" d="M128.97,40.01c0.53,0.33,1.28,0.59,2.1,0.59c1.14,0,1.81-0.56,1.81-1.38c0-0.75-0.44-1.19-1.68-1.57
		c-1.55-0.48-2.34-1.15-2.34-2.31c0-1.27,1.11-2.22,2.78-2.22c0.93,0,1.59,0.2,2,0.42l-0.31,0.88c-0.28-0.16-0.88-0.42-1.71-0.42
		c-1.22,0-1.65,0.68-1.65,1.23c0,0.73,0.52,1.12,1.75,1.52c1.5,0.49,2.28,1.12,2.28,2.4c0,1.19-0.89,2.35-3.02,2.35
		c-0.86,0-1.8-0.25-2.3-0.59L128.97,40.01z"/>
	<path class="st3" d="M138.3,33.38c0.58-0.1,1.43-0.18,2.23-0.18c1.21,0,1.99,0.23,2.52,0.69c0.4,0.34,0.66,0.89,0.66,1.52
		c0,1.07-0.74,1.79-1.6,2.05v0.03c0.62,0.23,1.02,0.81,1.22,1.58c0.29,1.14,0.49,1.94,0.67,2.28h-1.13
		c-0.13-0.23-0.32-0.9-0.57-1.91c-0.26-1.11-0.73-1.54-1.73-1.58h-1.2v3.5h-1.09V33.38z M139.39,37.04h1.29
		c1.2,0,1.94-0.59,1.94-1.51c0-1.09-0.88-1.5-2.02-1.5c-0.61,0-1.02,0.06-1.22,0.11V37.04z"/>
	<path class="st3" d="M149.87,37.58h-3.5v2.88h3.91v0.89h-5v-8.08h4.8v0.89h-3.71v2.53h3.5V37.58z"/>
	<path class="st3" d="M158.61,40.94c-0.51,0.19-1.55,0.5-2.84,0.5c-1.4,0-2.53-0.35-3.39-1.16c-0.73-0.69-1.17-1.75-1.17-2.93
		c0-2.17,1.67-4.16,4.81-4.16c1.08,0,1.93,0.24,2.31,0.42l-0.28,0.87c-0.5-0.22-1.13-0.4-2.07-0.4c-2.28,0-3.63,1.36-3.63,3.22
		c0,1.9,1.32,3.25,3.52,3.25c0.81,0,1.37-0.11,1.66-0.26v-2.33h-1.83V37.1h2.91V40.94z"/>
	<path class="st3" d="M161.4,33.27v8.08h-1.09v-8.08H161.4z"/>
	<path class="st3" d="M171.15,37.22c0,2.69-1.91,4.28-4.22,4.28c-2.41,0-4.1-1.74-4.1-4.09c0-2.52,1.79-4.28,4.2-4.28
		C169.51,33.12,171.15,34.88,171.15,37.22z M163.99,37.37c0,1.75,1.15,3.26,3,3.26c1.86,0,3.02-1.44,3.02-3.36
		c0-1.64-1.03-3.29-2.99-3.29C165.03,33.99,163.99,35.56,163.99,37.37z M165.43,32.74c-0.02-0.75,0.31-1.25,0.85-1.25
		c0.28,0,0.48,0.1,0.76,0.26c0.2,0.11,0.41,0.22,0.61,0.22c0.18,0,0.3-0.08,0.33-0.48h0.58c0.01,0.78-0.27,1.19-0.83,1.19
		c-0.26,0-0.48-0.09-0.78-0.24c-0.25-0.13-0.42-0.24-0.61-0.24c-0.19,0-0.29,0.22-0.32,0.54H165.43z"/>
	<path class="st3" d="M177.18,37.58h-3.5v2.88h3.91v0.89h-5v-8.08h4.8v0.89h-3.71v2.53h3.5V37.58z"/>
	<path class="st3" d="M178.91,40.01c0.53,0.33,1.28,0.59,2.1,0.59c1.14,0,1.81-0.56,1.81-1.38c0-0.75-0.44-1.19-1.68-1.57
		c-1.55-0.48-2.34-1.15-2.34-2.31c0-1.27,1.11-2.22,2.78-2.22c0.93,0,1.59,0.2,2,0.42l-0.31,0.88c-0.28-0.16-0.88-0.42-1.71-0.42
		c-1.22,0-1.65,0.68-1.65,1.23c0,0.73,0.52,1.12,1.75,1.52c1.5,0.49,2.28,1.12,2.28,2.4c0,1.19-0.89,2.35-3.02,2.35
		c-0.86,0-1.8-0.25-2.3-0.59L178.91,40.01z"/>
</g>
</svg>
